<?xml version="1.0" encoding="UTF-8"?>
<svg id="Camada_2" data-name="Camada 2" xmlns="http://www.w3.org/2000/svg" viewBox="0 0 628.43 160.04">
  <defs>
    <style>
      .cls-1, .cls-2 {
        fill: #fff;
      }

      .cls-3 {
        letter-spacing: .75em;
      }

      .cls-4 {
        letter-spacing: .72em;
      }

      .cls-5 {
        letter-spacing: .75em;
      }

      .cls-6 {
        letter-spacing: .75em;
      }

      .cls-2 {
        font-family: MyriadPro-Regular, 'Myriad Pro';
        font-size: 30.96px;
      }
    </style>
  </defs>
  <g id="Camada_1-2" data-name="Camada 1">
    <g>
      <g>
        <path class="cls-1" d="M254.53,36.26c.22.19,1.41,4.95.56,5.49l-41.79,42.69c-.2,1.09.47.66,1.19.71,2.82.2,5.15-.44,7.67-.5,6.72-.17,13.4.15,20.1-.54,1.48-.51,5.19-11.18,6.13-11.86.52-.38,5.92,1.04,7.13.92l-2.36,20.41-57.61.66c.02-1.82-1.39-6.13-.54-7.43l41.32-41.73-27.04.32c-1.24.42-4.31,10.93-5.17,12.82l-8.11-.9,2.41-21.59,56.11.52Z"/>
        <path class="cls-1" d="M345.78,44.84l-7.68-.48-.48-7.2,15.04-1.36,3.91,6.64c11.52-10.94,31.44-11.55,43.93-2.05l-1.93,22.69h-8.16l-2.02-15.01c-7.36-7.64-21.2-5.34-28.45,1.58l-.24,35.98,8.14.98-.46,7.18h-29.28l-.45-7.17,8.13-.99v-40.78Z"/>
        <path class="cls-1" d="M496.5,37.17v-18.95c0-1.06-6.27-.78-7.46-.74-3.14.1-6.89.74-10.07.97-1.67.13-3.37-.07-5.04,0l.51,7.18,8.13.99-.5,66.95c5.31.88,10.73,1.76,16.1,2.13,20.39,1.41,48.53-.31,51.46-26.28,3.67-32.48-27.43-41.38-53.15-32.25ZM517.37,86.1c-3.84.34-17.72,0-20.41-2.62-1.33-1.3.01-32.78-.42-37.15,3.59-.8,7.13-1.92,10.81-2.38,9.98-1.26,20.87-.58,26.02,9.38,6.83,13.22-.27,31.37-16,32.78Z"/>
        <path class="cls-1" d="M628.02,86.11c-3.17-.26-6.81,1.19-8.54-2.26-2.11-18.63,7.64-43.39-17.36-48.86-12.73-2.78-28.05-.85-39.66,5.05-.54.86,2.91,6.92,2.68,8.64,10.03-3.96,22.84-7.41,33.49-3.97,5.37,1.73,7.24,5.69,6.83,11.17-15.36.63-50.83-.78-49.46,22.33,1.31,22.06,35.06,20.32,49.12,12.12.82-.48,3.24-2.61,3.69-2.3,2.29,8.74,12.74,8.06,19.62,5.69l-.41-7.62ZM605.46,81.07c-6.87,4.75-25.13,7.75-31.69,2.41-3.96-3.23-4.6-9.41-1.43-13.44,4.6-5.85,21.6-5.28,28.58-5.5.86-.03,4.54-1.15,4.54.22v16.31Z"/>
        <path class="cls-1" d="M404.95,70.38c3.66,21.36,24.05,27.49,43.24,25.26,7.29-.85,13.8-3.3,19.98-7.15-.96-1.37-3.72-7.38-4.8-7.94-.72-.38-6.64,3.28-8.17,3.86-5.58,2.15-12.53,2.61-18.49,2.19-10.43-.73-17.06-7.41-17.98-17.77,17.77,1.56,35.61,1.62,53.46,1.37.99-.34,1.24-3.85,1.28-4.95,1.97-45.79-76.21-39.71-68.53,5.12ZM418.74,60.68c1.05-7.68,5.39-14.27,13.06-16.46,13.45-3.84,27.19.84,27.74,16.46h-40.8Z"/>
        <path class="cls-1" d="M293.84,33.95c-21.07,1.5-37.64,17.09-31.83,39.21,8.52,32.43,68.4,29.97,71.7-4.62,2.27-23.77-18.31-36.12-39.88-34.58ZM302.29,86.54c-18.08,2-28.56-6.64-27.09-25.16.93-11.62,9.37-17.87,20.56-18.31,12.14-.47,21.45,4.4,23.54,16.97,2.07,12.44-3.38,24.99-17.01,26.5Z"/>
      </g>
      <path class="cls-1" d="M155.29,42.83V15.44c-4.07,1.31-7.98,3.06-12.02,4.47-.33.01-.42-.08-.28-.28,3.73-5.15,3.98-12.51-.29-17.46-3.67-4.24-9.36-1.81-8.31,3.28.27,1.28,1.79,2.28,2.31,3.56,1.52,3.78-1.51,7.57-5.52,6.92-1.8-.29-5.24-3.29-7.05-4.41-25.85-16-59.63-13.89-82.99,5.6-.87.72-5.18,4.99-5.61,5.03l-17.73-6.72v27.39C8.93,44.38,1.66,52.08.27,60.94c-1.84,11.72,5.8,23.12,17.52,25.23l.05,27.35,35.28,14.82c3.29,14.77,13.78,30.39,30.22,31.6,19.09,1.41,30.3-11.59,35.63-28.36.31-.97.43-2.81,1.12-3.36l35.07-14.95.16-27.09c23.33-5.05,23.3-38.31-.03-43.35ZM17.8,76.93c-3.68-.58-7.14-4.58-8.32-8.03-2.3-6.74,1.34-15,8.32-16.85v24.87ZM56.92,16.97c20.26-10.94,44.06-9.48,63.42,2.54,3.33,2.07,6.07,5.03,10.36,5.15l-2.16,1.05-42.08,16.21-41.55-16c.03-1.53,10.22-7.98,12.01-8.95ZM105.1,142.87c-10.19,13.39-28.5,12.65-38.07-1.01-2.25-3.21-5.92-10.53-6.37-14.34-.45-3.77,4.08-6.31,6.87-3.5,1.31,1.32,1.06,3.5,2.81,4.73,2.58,1.81,6.16-.03,6.15-3.06,0-1.99-2.08-4.41-1.92-6.35.13-1.54,1.41-3.19,2.94-3.51,1.86-.39,3.33.04,4.39,1.63,1.44,2.16.23,4.73.98,7.12.93,2.95,5.26,3.22,6.85.67,1.41-2.27-.95-6.61,2.13-8.77,1.88-1.32,4.21-1.02,5.57.82,2.39,3.23-1.28,5.64-.84,9.23.31,2.53,3.63,3.73,5.74,2.37,2.19-1.42,1.7-4.6,4.33-5.73,2.69-1.16,5.74.9,5.6,3.9-.19,3.97-4.69,12.54-7.16,15.78ZM146.35,107.67l-28.65,12.01c-1.15-.65-1.98-1.74-3.12-2.46-3-1.9-6.15-2.18-9.59-1.45-1.9-6.55-9.8-9.37-15.84-6.48-.66.32-2.27,1.73-2.75,1.73-.19,0-2.42-1.62-3.11-1.92-6.05-2.63-13.35.41-15.48,6.66-3.38-.78-7.02-.36-9.86,1.73-.65.48-1.98,2.14-2.55,2.17-9.73-3.77-19.21-8.32-28.94-12V28.3l59.94,22.92,59.94-22.92v79.38ZM155.29,77.21v-25.15c1.22.1,2.65,1.08,3.61,1.84,8.55,6.72,6.23,19.42-3.61,23.31Z"/>
      <text class="cls-2" transform="translate(285.1 138.37)"><tspan class="cls-3" x="0" y="0">EDI</tspan><tspan class="cls-4" x="112.92" y="0">T</tspan><tspan class="cls-6" x="150.69" y="0">O</tspan><tspan class="cls-5" x="195.25" y="0">R</tspan><tspan class="cls-6" x="235.28" y="0">A</tspan></text>
    </g>
  </g>
</svg>